<svg width="901" height="486" viewBox="0 0 901 486" fill="none" xmlns="http://www.w3.org/2000/svg">
  <rect width="901" height="486" rx="58" fill="white" />
  <path d="M277.5 215.5V180L227 229V266L277.5 215.5Z" fill="#FFAD33" />
  <path d="M253 287.5L252 250.5L227 276.5V313.5L253 287.5Z" fill="#FFAD33" />
  <path d="M244.5 203.5V168L194 217V254L244.5 203.5Z" fill="#FFAD33" />
  <path d="M220 275.5L219 238.5L194 264.5V301.5L220 275.5Z" fill="#FFAD33" />
  <path d="M329.418 263V215.417H364.086V224.933H339.615V236.489H358.648V245.666H339.615V263H329.418ZM367.032 258.717C363.452 255.137 361.662 250.787 361.662 245.666C361.662 240.545 363.452 236.217 367.032 232.683C370.658 229.102 375.099 227.312 380.356 227.312C385.703 227.312 390.099 229.08 393.543 232.615C396.987 236.149 398.709 240.5 398.709 245.666V247.705H371.519C371.881 249.971 372.901 251.897 374.578 253.483C376.254 255.069 378.18 255.862 380.356 255.862C382.757 255.862 384.819 255.183 386.541 253.823C387.221 253.234 387.765 252.554 388.173 251.784H398.369C397.599 254.095 396.466 256.134 394.97 257.902C391.345 261.98 386.473 264.02 380.356 264.02C375.099 264.02 370.658 262.252 367.032 258.717ZM371.859 241.927H388.513C388.15 240.115 387.221 238.596 385.726 237.373C384.276 236.104 382.486 235.47 380.356 235.47C378.226 235.47 376.413 236.081 374.917 237.305C373.422 238.529 372.402 240.069 371.859 241.927ZM403.577 258.989C400.541 255.591 399.023 251.149 399.023 245.666C399.023 240.183 400.541 235.764 403.577 232.411C406.659 229.012 410.465 227.312 414.997 227.312C418.033 227.312 420.775 228.219 423.222 230.031C424.264 230.893 425.148 231.799 425.873 232.751H426.213V228.332H435.73V263H426.213V258.582H425.873C425.148 259.533 424.264 260.44 423.222 261.301C420.775 263.113 418.033 264.02 414.997 264.02C410.465 264.02 406.659 262.343 403.577 258.989ZM411.258 238.189C409.672 240.001 408.879 242.494 408.879 245.666C408.879 248.838 409.672 251.331 411.258 253.143C412.844 254.956 414.884 255.862 417.376 255.862C420.005 255.862 422.134 254.979 423.766 253.211C425.397 251.399 426.213 248.884 426.213 245.666C426.213 242.448 425.397 239.956 423.766 238.189C422.134 236.376 420.005 235.47 417.376 235.47C414.884 235.47 412.844 236.376 411.258 238.189ZM436.749 236.489V228.332H441.168V220.855H450.685V228.332H460.473V236.489H450.685V254.843H460.881V263H441.168V236.489H436.749ZM462.549 249.405V228.332H472.065V248.045C472.065 250.583 472.677 252.532 473.901 253.891C475.169 255.205 476.937 255.862 479.203 255.862C481.469 255.862 483.395 255.001 484.981 253.279C486.567 251.557 487.36 249.359 487.36 246.686V228.332H496.877V263H487.36V258.242H487.02C486.476 259.284 485.638 260.258 484.505 261.165C482.058 263.068 479.271 264.02 476.144 264.02C471.839 264.02 468.485 262.773 466.083 260.281C463.727 257.788 462.549 254.163 462.549 249.405ZM500.631 263V228.332H510.148V233.43H510.488C510.896 232.343 511.507 231.391 512.323 230.575C514.181 228.627 516.515 227.652 519.325 227.652H523.403V236.829H518.305C515.722 236.829 513.705 237.532 512.255 238.936C510.85 240.296 510.148 242.199 510.148 244.646V263H500.631ZM527.772 258.717C524.192 255.137 522.402 250.787 522.402 245.666C522.402 240.545 524.192 236.217 527.772 232.683C531.398 229.102 535.839 227.312 541.096 227.312C546.443 227.312 550.839 229.08 554.283 232.615C557.727 236.149 559.449 240.5 559.449 245.666V247.705H532.259C532.621 249.971 533.641 251.897 535.318 253.483C536.994 255.069 538.92 255.862 541.096 255.862C543.498 255.862 545.56 255.183 547.282 253.823C547.961 253.234 548.505 252.554 548.913 251.784H559.109C558.339 254.095 557.206 256.134 555.711 257.902C552.085 261.98 547.214 264.02 541.096 264.02C535.839 264.02 531.398 262.252 527.772 258.717ZM532.599 241.927H549.253C548.89 240.115 547.961 238.596 546.466 237.373C545.016 236.104 543.226 235.47 541.096 235.47C538.966 235.47 537.153 236.081 535.658 237.305C534.162 238.529 533.142 240.069 532.599 241.927ZM574.07 263V215.417H608.737V224.933H584.266V236.489H603.299V245.666H584.266V263H574.07ZM610.41 263V215.417H619.927V254.843H627.744V263H610.41ZM631.3 258.989C628.264 255.591 626.746 251.149 626.746 245.666C626.746 240.183 628.264 235.764 631.3 232.411C634.382 229.012 638.189 227.312 642.72 227.312C645.757 227.312 648.498 228.219 650.946 230.031C651.988 230.893 652.871 231.799 653.597 232.751H653.936V228.332H663.453V263H653.936V258.582H653.597C652.871 259.533 651.988 260.44 650.946 261.301C648.498 263.113 645.757 264.02 642.72 264.02C638.189 264.02 634.382 262.343 631.3 258.989ZM638.982 238.189C637.396 240.001 636.602 242.494 636.602 245.666C636.602 248.838 637.396 251.331 638.982 253.143C640.568 254.956 642.607 255.862 645.1 255.862C647.728 255.862 649.858 254.979 651.489 253.211C653.121 251.399 653.936 248.884 653.936 245.666C653.936 242.448 653.121 239.956 651.489 238.189C649.858 236.376 647.728 235.47 645.1 235.47C642.607 235.47 640.568 236.376 638.982 238.189ZM670.115 258.31C667.033 254.956 665.492 250.628 665.492 245.326C665.492 240.024 667.033 235.696 670.115 232.343C673.196 228.989 676.98 227.312 681.467 227.312C684.458 227.312 687.2 228.241 689.692 230.099C690.734 230.96 691.618 231.867 692.343 232.819H692.683V228.332H702.2V275.916H670.591V267.758H692.683V257.834H692.343C691.573 258.921 690.689 259.85 689.692 260.621C687.245 262.434 684.503 263.34 681.467 263.34C676.98 263.34 673.196 261.663 670.115 258.31ZM677.796 238.121C676.165 239.888 675.349 242.29 675.349 245.326C675.349 248.362 676.165 250.764 677.796 252.532C679.428 254.299 681.557 255.183 684.186 255.183C686.678 255.183 688.718 254.299 690.304 252.532C691.89 250.764 692.683 248.362 692.683 245.326C692.683 242.29 691.89 239.888 690.304 238.121C688.718 236.353 686.678 235.47 684.186 235.47C681.557 235.47 679.428 236.353 677.796 238.121Z" fill="#06052F" />
  <path d="M561.666 262.456C560.624 261.414 560.103 260.122 560.103 258.582C560.103 257.041 560.624 255.749 561.666 254.707C562.708 253.665 564 253.143 565.541 253.143C567.081 253.143 568.373 253.665 569.415 254.707C570.458 255.749 570.979 257.041 570.979 258.582C570.979 260.122 570.458 261.414 569.415 262.456C568.373 263.498 567.081 264.02 565.541 264.02C564 264.02 562.708 263.498 561.666 262.456Z" fill="#FFAD33" />
</svg>

